<svg xmlns="http://www.w3.org/2000/svg" data-name="Layer 1" width="744" height="539.2859497070312"><rect id="backgroundrect" width="100%" height="100%" x="0" y="0" fill="none" stroke="none"/><g class="currentLayer" style=""><title>Layer 1</title><path d="M474.11416999999994,404.2859595947266 v130 H148.41541999999998 c-37.109,0 -67.30125,-29.15983 -67.30125,-65 s30.19221,-65 67.30125,-65 z" fill="#f2f2f2" id="svg_1"/><path d="M482.11416999999994,533.2859595947266 a5.002,5.002 0 0 1 -5,5 h-334.5 a68.5,68.5 0 1 1 0,-137 h334.5 a5,5 0 0 1 0,10 h-334.5 a58.5,58.5 0 1 0 0,117 h334.5 A5.002,5.002 0 0 1 482.11416999999994,533.2859595947266 z" fill="#6c63ff" id="svg_2"/><path d="M474.11416999999994,434.2859595947266 h-350 a1,1 0 1 1 0,-2 h350 a1,1 0 0 1 0,2 z" fill="#ccc" id="svg_3"/><path d="M474.11416999999994,458.2859595947266 h-350 a1,1 0 1 1 0,-2 h350 a1,1 0 0 1 0,2 z" fill="#ccc" id="svg_4"/><path d="M474.11416999999994,482.2859595947266 h-350 a1,1 0 1 1 0,-2 h350 a1,1 0 0 1 0,2 z" fill="#ccc" id="svg_5"/><path d="M474.11416999999994,506.2859595947266 h-350 a1,1 0 1 1 0,-2 h350 a1,1 0 0 1 0,2 z" fill="#ccc" id="svg_6"/><path d="M725.83158,428.7568695947266 L644.26685,529.9853095947266 L390.65166999999997,325.63507959472656 c-28.89608,-23.283 -34.11066,-64.9324 -11.62379,-92.84043 s64.29244,-31.671 93.18852,-8.388 z" fill="#f2f2f2" id="svg_7"/><path d="M651.12372,534.2259595947265 a5.002,5.002 0 0 1 -7.03051,0.7563000000000001 L383.62467000000004,325.10995959472655 a68.5,68.5 0 0 1 85.95667,-106.6792 L730.04988,428.3030995947265 a5,5 0 1 1 -6.27421,7.7868 L463.30713000000003,226.21758959472658 a58.5,58.5 0 1 0 -73.40825,91.10558 L650.36742,527.1954895947266 A5.002,5.002 0 0 1 651.12372,534.2259595947265 z" fill="#ccc" id="svg_8"/><path d="M707.009,452.1172795947266 L434.47086,232.51995959472657 a1,1 0 1 1 1.25485,-1.55736 L708.26379,450.5599595947266 a1,1 0 1 1 -1.25484,1.55736 z" fill="#ccc" id="svg_9"/><path d="M691.95085,470.80560959472655 L419.41276000000005,251.20826959472657 a1,1 0 0 1 1.25484,-1.55736 L693.20569,469.24824959472653 a1,1 0 1 1 -1.25484,1.55736 z" fill="#ccc" id="svg_10"/><path d="M676.89274,489.49395959472656 L404.35465999999997,269.8965995947266 a1,1 0 0 1 1.25484,-1.5573700000000001 L678.14759,487.9365695947265 a1,1 0 1 1 -1.25485,1.55736 z" fill="#ccc" id="svg_11"/><path d="M661.83464,508.1822595947266 L389.29655,288.58495959472657 a1,1 0 1 1 1.25485,-1.55736 L663.08948,506.62489959472657 a1,1 0 1 1 -1.25484,1.55736 z" fill="#ccc" id="svg_12"/><path d="M743,539.2859595947266 H1 a1,1 0 0 1 0,-2 H743 a1,1 0 0 1 0,2 z" fill="#ccc" id="svg_13"/><polygon points="338.081 390.622 326.649 390.621 321.212 346.525 338.085 346.527 338.081 390.622" fill="#ffb8b8" id="svg_14"/><path d="M318.48241,387.35454h22.04781a0,0,0,0,1,0,0v13.88195a0,0,0,0,1,0,0H304.60048a0,0,0,0,1,0,0v0A13.88193,13.88193,0,0,1,318.48241,387.35454Z" fill="#2f2e41" id="svg_15"/><polygon points="221.286 390.622 209.854 390.621 204.417 346.525 221.29 346.527 221.286 390.622" fill="#ffb8b8" id="svg_16"/><path d="M201.68787,387.35454h22.04781a0,0,0,0,1,0,0v13.88195a0,0,0,0,1,0,0H187.80594a0,0,0,0,1,0,0v0A13.88193,13.88193,0,0,1,201.68787,387.35454Z" fill="#2f2e41" id="svg_17"/><path d="M259.47085,63.533069594726555 v-5.00006 a32.25,32.25 0 0 1 32.25,-32.25 h0.00006000000000000002 a32.25,32.25 0 0 1 32.25,32.25 v5.00006 a23.25,23.25 0 0 1 -23.25,23.25 h-18 A23.25,23.25 0 0 1 259.47085,63.533069594726555 z" fill="#4141e8" id="svg_18" class="" fill-opacity="1"/><circle cx="291.7208557128906" cy="63.94248962402344" r="24.5610294342041" fill="#ffb8b8" id="svg_19"/><path d="M406.4877,196.11805959472656 " fill="#ffb8b8" id="svg_20"/><path d="M158.12457999999998,148.35555959472657 A9.377,9.377 0 0 1 172.40485999999999,150.03295959472655 l21.05462,-3.98267 l5.5409,12.20454 l-29.8122,5.2067 a9.42779,9.42779 0 0 1 -11.0636,-15.106 z" fill="#ffb8b8" id="svg_21"/><path d="M272.57256,103.97122959472654 l0.27536000000000005,0.41722000000000004 L238.32209999999998,127.13281959472658 l-58.25831,18.60329 a3.5078,3.5078 0 0 0 -2.412,3.73827 l1.2709000000000001,10.94662 a3.50073,3.50073 0 0 0 4.21024,3.01849 l54.82973,-11.75277 a19.80593,19.80593 0 0 0 7.37148,-3.24548 L284.12199999999996,120.84434959472657 a10.01984,10.01984 0 0 0 4.1584,-8.94749 a9.9752,9.9752 0 0 0 -15.43253,-7.50841 z" fill="#ccc" id="svg_22"/><path d="M326.85319000000004,378.1086795947266 a4.51847,4.51847 0 0 1 -4.1377,-2.70118 l-52.40991,-129.501 a1.4998200000000002,1.4998200000000002 0 0 0 -2.80859,0.15820000000000004 L224.73868,372.13845959472656 a4.50087,4.50087 0 0 1 -5.88159,2.8911100000000003 l-14.33838,-5.37695 a4.48887,4.48887 0 0 1 -2.8970000000000002,-3.70459 c-6.45044,-56.19238 49.80005,-198.02978 50.36914,-199.45556 l0.15747000000000003,-0.3950000000000001 l51.2771,11.34277 l0.10669000000000002,0.11621000000000002 c20.45777,22.31787 37.27344,163.082 40.43677,191.07373 a4.47857,4.47857 0 0 1 -2.97119,4.74658 l-12.65625,4.47608 A4.45661,4.45661 0 0 1 326.85319000000004,378.1086795947266 z" fill="#4141e8" id="svg_23" class="" fill-opacity="1"/><path d="M282.67252,182.00564959472655 c-12.42358,0 -26.27441,-2.477 -30.53784,-12.70068 l-0.09814000000000003,-0.23487 l0.13256,-0.21777000000000002 c3.36524,-5.52149 7.813,-14.94043 5.42237,-16.7085 c-4.70923,-3.48193 -6.99439,-9.21 -6.79151,-17.02539 c0.44043000000000004,-16.96582 12.00049,-32.02881 28.76587,-37.48242 h0.0002500000000000001 A127.64221,127.64221 0 0 1 293.82899999999995,93.96365959472655 a24.28073,24.28073 0 0 1 20.13257,4.97168 a24.5264,24.5264 0 0 1 9.09594,18.8706 c0.17578000000000002,18.13086 -2.61548,43.3833 -16.91211,60.72022 a4.44777,4.44777 0 0 1 -2.633,1.53125 A122.223,122.223 0 0 1 282.67252,182.00564959472655 z" fill="#ccc" id="svg_24"/><path d="M278.05111,181.32676959472656 a9.55593,9.55593 0 0 1 11.67847,-6.66417 a9.40742,9.40742 0 0 1 1.44781,0.53625 l15.98666,-14.54884 l11.118,7.49027 l-22.86179,20.23092 a9.53906,9.53906 0 0 1 -10.81319,4.58661 A9.39418,9.39418 0 0 1 278.05111,181.32676959472656 z" fill="#ffb8b8" id="svg_25"/><path d="M304.63175,181.5115095947266 a4.48762,4.48762 0 0 1 -2.84546,-1.01514 l-6.30444,-5.15185 a4.49995,4.49995 0 0 1 0.10913000000000002,-7.05518 l26.44165,-20.27978 a1.5033400000000001,1.5033400000000001 0 0 0 0.28345000000000004,-2.09473 L305.99577,124.33865959472655 a13.28507,13.28507 0 0 1 0.8874500000000001,-17.11426 h0 a13.24793,13.24793 0 0 1 17.88769,-1.43067 l0.10327000000000001,0.10889000000000001 l17.042,24.40235 a15.19267,15.19267 0 0 1 -0.36011000000000004,24.18554 l-34.24561,26.13867 A4.50736,4.50736 0 0 1 304.63175,181.5115095947266 z" fill="#ccc" id="svg_26"/><path d="M269.96524,57.033039594726574 V44.846889594726576 l21.75561,-9.5 l20.74439,9.5 v12.18615 a2,2 0 0 1 -2,2 h-38.5 A2,2 0 0 1 269.96524,57.033039594726574 z" fill="#4141e8" id="svg_27" class="" fill-opacity="1"/><path d="M290.72211000000004,27.89963959472655 c-3.1987900000000002,-10.23852 3.51931,-21.97233 13.45085,-26.025 s21.81344,-1.21974 30.19368,5.47588 s13.57963,16.72441 16.33459,27.09118 s3.27788,21.17682 3.7865,31.89135 c12.20223,2.24139 20.50283,16.71428 16.27576,28.37833 s-19.87268,17.45879 -30.67781,11.3623 s-13.93468,-22.48461 -6.1363900000000005,-32.1337 a26.37385,26.37385 0 0 0 -30.68776,-40.9097 C297.24773000000005,35.54519959472657 289.702,29.010889594726564 290.72211000000004,27.89963959472655 z" fill="#4141e8" id="svg_28" class="" fill-opacity="1"/><path d="M153.61417,101.08279959472657 a104.44868,104.44868 0 0 1 -42.34814,-9.2749 a4.47254,4.47254 0 0 1 -2.65186,-4.104 V51.28595959472656 a4.505,4.505 0 0 1 4.5,-4.5 h81 a4.5050799999999995,4.5050799999999995 0 0 1 4.5,4.5 v36.418 a4.47272,4.47272 0 0 1 -2.65185,4.104 h0 A104.44869,104.44869 0 0 1 153.61417,101.08279959472657 z" fill="#4141e8" id="svg_29" class="selected" fill-opacity="1"/><path d="M153.60306000000003,71.57986959472657 a4.50521,4.50521 0 0 1 -1.74865,-0.35156000000000004 l-64.23194,-27.09961 a4.49965,4.49965 0 0 1 0.15308000000000002,-8.353 L152.00833999999998,11.407959594726549 a4.48365,4.48365 0 0 1 3.2113,0.006840000000000002 l63.37207,24.36767 a4.50012,4.50012 0 0 1 0.15406000000000003,8.3379 L155.373,71.21951959472656 A4.507,4.507 0 0 1 153.60306000000003,71.57986959472657 z" fill="#4141e8" id="svg_30" class="" fill-opacity="1"/><circle cx="116.11416625976562" cy="88.28591918945312" r="6" fill="#3f3d56" id="svg_31"/><path d="M218.96476,40.27377959472656 L155.59170999999998,67.37295959472655 a3.99993,3.99993 0 0 1 -3.12744,0.007570000000000002 l-64.23193,-27.09882 a3.9245099999999997,3.9245099999999997 0 0 1 -1.9126,-1.6810900000000002 a3.997,3.997 0 0 0 1.9126,5.68109 l64.23193,27.09882 a3.99993,3.99993 0 0 0 3.12744,-0.007570000000000002 l63.37305,-27.09918 a3.99713,3.99713 0 0 0 1.89453,-5.673220000000001 A3.92676,3.92676 0 0 1 218.96476,40.27377959472656 z" opacity="0.2" id="svg_32"/><path d="M116.61831999999998,88.26247959472659 a1,1 0 0 0 1,-1 V53.80105959472655 l32.9812,-12.01514 a1.00011,1.00011 0 0 0 0.029790000000000004,-2 l-32.9812,12.01514 a1.9616700000000002,1.9616700000000002 0 0 0 -1.4333500000000001,0.5751900000000001 a1.98569,1.98569 0 0 0 -0.5964400000000001,1.4248100000000001 v33.46142 A1.00005,1.00005 0 0 0 116.61831999999998,88.26247959472659 z" fill="#3f3d56" id="svg_33"/></g></svg>